<svg width="80" height="22" viewBox="0 0 80 22" fill="none" xmlns="http://www.w3.org/2000/svg">
<path d="M65.6382 8.14092C63.0299 6.86833 61.0383 5.88317 59.1174 4.95945C58.4299 4.61058 57.7474 4.3281 57.1207 3.90791C56.221 3.37472 54.9876 2.79986 55.5503 1.48916C56.118 0.244838 57.4072 0.681984 58.3527 0.944696C59.3589 1.13608 60.3851 1.59301 61.3406 1.98849C65.7691 3.72506 70.2027 5.52802 74.5705 7.33592C75.7332 7.84933 76.9566 8.29143 78.0028 9.01388C80.2266 10.4489 80.2149 12.052 78.0034 13.4198C75.0329 15.2454 71.9866 16.943 68.9403 18.6407C67.6751 19.4034 66.3442 20.171 64.9984 20.7395C64.2293 21.0644 63.3038 21.0672 62.454 21.1978C62.0513 19.3589 63.0734 18.8815 63.959 18.3476C66.1655 16.9133 68.4427 15.5405 70.6492 14.1062C71.4033 13.5822 72.2231 13.0533 72.9323 11.9318C71.7388 11.8881 70.606 11.7729 69.4175 11.7955C60.5061 11.9981 51.6604 12.1958 42.749 12.3984C29.8118 12.7034 16.9403 13.0035 3.99804 13.2421C2.94102 13.2548 1.85905 12.9356 0.584812 12.6976C1.63361 10.8162 3.04434 11.1107 4.16711 11.0931C10.4893 10.7513 16.8871 10.5374 23.2143 10.262C36.8598 9.70354 50.5054 9.14503 64.1509 8.58652C64.4747 8.49542 64.6669 8.41421 65.6382 8.14092Z" fill="white"/>
</svg>
