<svg width="32" height="33" viewBox="0 0 32 33" fill="none" xmlns="http://www.w3.org/2000/svg">
<circle cx="16" cy="16.5388" r="16" fill="#CCEBE2"/>
<path d="M16.0001 4.53882C9.3735 4.53882 4 10.0473 4 16.8426C4 22.2788 7.43839 26.8908 12.2064 28.5177C12.8061 28.6316 13.0263 28.2508 13.0263 27.9258C13.0263 27.6324 13.0152 26.6632 13.01 25.6351C9.67157 26.3794 8.96712 24.1834 8.96712 24.1834C8.42125 22.7612 7.63473 22.3831 7.63473 22.3831C6.54596 21.6194 7.7168 21.6351 7.7168 21.6351C8.92181 21.7219 9.55632 22.903 9.55632 22.903C10.6266 24.784 12.3636 24.2402 13.0484 23.9258C13.1561 23.1306 13.4671 22.5879 13.8102 22.2806C11.1449 21.9695 8.34295 20.9145 8.34295 16.2C8.34295 14.8567 8.81172 13.7591 9.57937 12.8975C9.45477 12.5876 9.04402 11.3362 9.69562 9.64143C9.69562 9.64143 10.7033 9.31075 12.9965 10.9026C13.9537 10.63 14.9803 10.4933 16.0001 10.4886C17.0199 10.4933 18.0473 10.63 19.0063 10.9026C21.2967 9.31075 22.303 9.64143 22.303 9.64143C22.9562 11.3362 22.5452 12.5876 22.4206 12.8975C23.1901 13.7591 23.6557 14.8567 23.6557 16.2C23.6557 20.9257 20.8484 21.9662 18.1762 22.2708C18.6067 22.6526 18.9902 23.4014 18.9902 24.5493C18.9902 26.1956 18.9763 27.5205 18.9763 27.9258C18.9763 28.2532 19.1923 28.6369 19.8006 28.516C24.566 26.8873 28 22.2769 28 16.8426C28 10.0473 22.6273 4.53882 16.0001 4.53882Z" fill="#2D2D2D"/>
<path d="M8.58043 22.12C8.55405 22.1805 8.46043 22.1987 8.37514 22.1571C8.28827 22.1174 8.23947 22.0348 8.26764 21.9741C8.29342 21.9118 8.38724 21.8944 8.47392 21.9362C8.56099 21.9759 8.61058 22.0592 8.58043 22.12Z" fill="#2D2D2D"/>
<path d="M9.06559 22.6703C9.00846 22.7242 8.89679 22.6992 8.82103 22.614C8.74268 22.5291 8.728 22.4155 8.78592 22.3608C8.84483 22.307 8.95312 22.3322 9.03167 22.4171C9.11002 22.5031 9.12529 22.6158 9.06559 22.6703Z" fill="#2D2D2D"/>
<path d="M9.53784 23.372C9.46445 23.4238 9.34445 23.3752 9.27027 23.2668C9.19688 23.1585 9.19688 23.0286 9.27186 22.9765C9.34624 22.9245 9.46445 22.9713 9.53963 23.0788C9.61282 23.189 9.61282 23.3189 9.53784 23.372Z" fill="#2D2D2D"/>
<path d="M10.1848 24.0498C10.1192 24.1234 9.97936 24.1037 9.87701 24.0032C9.77229 23.9049 9.74313 23.7655 9.80898 23.6919C9.87543 23.6181 10.0161 23.6388 10.1192 23.7385C10.2231 23.8365 10.2549 23.977 10.1848 24.0498Z" fill="#2D2D2D"/>
<path d="M11.0774 24.4434C11.0485 24.5388 10.9138 24.5822 10.7781 24.5416C10.6426 24.4999 10.554 24.3881 10.5813 24.2917C10.6095 24.1956 10.7448 24.1504 10.8814 24.1938C11.0167 24.2354 11.1056 24.3463 11.0774 24.4434Z" fill="#2D2D2D"/>
<path d="M12.0576 24.5164C12.061 24.6169 11.946 24.7002 11.8036 24.702C11.6604 24.7052 11.5445 24.6239 11.5429 24.5251C11.5429 24.4236 11.6554 24.3411 11.7986 24.3387C11.941 24.3358 12.0576 24.4165 12.0576 24.5164Z" fill="#2D2D2D"/>
<path d="M12.9699 24.3584C12.9869 24.4565 12.8879 24.5571 12.7465 24.584C12.6075 24.6098 12.4787 24.5493 12.4611 24.452C12.4438 24.3516 12.5446 24.2509 12.6834 24.2249C12.8251 24.1999 12.9518 24.2588 12.9699 24.3584Z" fill="#2D2D2D"/>
</svg>
