<svg width="32" height="33" viewBox="0 0 32 33" fill="none" xmlns="http://www.w3.org/2000/svg">
<path fill-rule="evenodd" clip-rule="evenodd" d="M0 16.5388C0 7.70226 7.16344 0.538818 16 0.538818C24.8366 0.538818 32 7.70226 32 16.5388C32 25.3754 24.8366 32.5388 16 32.5388C7.16344 32.5388 0 25.3754 0 16.5388Z" fill="#CCEBE2"/>
<path d="M11.546 10.4206C11.5224 9.35242 10.7586 8.53882 9.51815 8.53882C8.27774 8.53882 7.4668 9.35242 7.4668 10.4206C7.4668 11.4667 8.25377 12.3037 9.47108 12.3037H9.49426C10.7586 12.3037 11.546 11.4667 11.546 10.4206Z" fill="#2D2D2D"/>
<path d="M11.3072 13.7908H7.68121V24.6852H11.3072V13.7908Z" fill="#2D2D2D"/>
<path d="M20.2089 13.5349C22.5949 13.5349 24.3837 15.0923 24.3837 18.4387L24.3836 24.6852H20.7578V18.8567C20.7578 17.3927 20.2331 16.3937 18.9205 16.3937C17.9187 16.3937 17.3221 17.0671 17.06 17.7176C16.9641 17.9507 16.9406 18.2755 16.9406 18.6011V24.6855H13.3142C13.3142 24.6855 13.362 14.8133 13.3142 13.791H16.9406V15.3341C17.4218 14.5923 18.2838 13.5349 20.2089 13.5349Z" fill="#2D2D2D"/>
</svg>
