<svg width="32" height="33" viewBox="0 0 32 33" fill="none" xmlns="http://www.w3.org/2000/svg">
<path fill-rule="evenodd" clip-rule="evenodd" d="M0 16.5388C0 7.70226 7.16344 0.538818 16 0.538818C24.8366 0.538818 32 7.70226 32 16.5388C32 25.3754 24.8366 32.5388 16 32.5388C7.16344 32.5388 0 25.3754 0 16.5388Z" fill="#CCEBE2"/>
<path fill-rule="evenodd" clip-rule="evenodd" d="M15.5208 13.5438L15.5544 14.0974L14.9948 14.0296C12.9579 13.7698 11.1784 12.8885 9.66756 11.4083L8.92891 10.6739L8.73865 11.2163C8.33575 12.4252 8.59316 13.702 9.43253 14.5607C9.8802 15.0352 9.77948 15.103 9.00725 14.8205C8.73865 14.7302 8.50363 14.6624 8.48124 14.6963C8.4029 14.7754 8.6715 15.8035 8.88414 16.2103C9.17513 16.7752 9.76828 17.3289 10.4174 17.6565L10.9658 17.9164L10.3167 17.9277C9.68994 17.9277 9.66756 17.939 9.73471 18.1763C9.95854 18.9107 10.8427 19.6903 11.8276 20.0292L12.5214 20.2665L11.9171 20.6281C11.0218 21.1478 9.96973 21.4416 8.91772 21.4642C8.41409 21.4755 8 21.5207 8 21.5546C8 21.6676 9.36538 22.3003 10.16 22.5489C12.5438 23.2833 15.3753 22.9669 17.5017 21.7128C19.0126 20.8202 20.5235 19.0463 21.2286 17.3289C21.6091 16.4137 21.9896 14.7415 21.9896 13.9392C21.9896 13.4195 22.0232 13.3517 22.6499 12.7303C23.0192 12.3687 23.3662 11.9733 23.4333 11.8603C23.5452 11.6456 23.534 11.6456 22.9633 11.8377C22.012 12.1767 21.8777 12.1315 22.3477 11.623C22.6947 11.2615 23.1088 10.6061 23.1088 10.4141C23.1088 10.3802 22.9409 10.4367 22.7506 10.5383C22.5492 10.6513 22.1015 10.8208 21.7658 10.9225L21.1614 11.1146L20.613 10.7417C20.3108 10.5383 19.8856 10.3124 19.6617 10.2446C19.0909 10.0864 18.218 10.109 17.7032 10.2898C16.3042 10.7982 15.4201 12.1089 15.5208 13.5438Z" fill="#2D2D2D"/>
</svg>
